# xmcd CD database file
#
# Track frame offsets:
#	150
#	9507
#	23365
#	34185
#	45952
#	59185
#	73215
#	87522
#	100322
#	112767
#	123647
#	138115
#	149882
#	160827
#	172245
#	185132
#	197370
#	210340
#	221125
#	234087
#
# Disc length: 3295 seconds
#
# Revision: 0
# Processed by: cddbd v1.5.2PL0 Copyright (c) Steve Scherf et al.
# Submitted via: CDex 1.51
#
DISCID=210cdd14
DTITLE=Frankie Laine - The Incomparable Frankie Laine, Disc Two
DYEAR=1996
DGENRE=Country
TTITLE0=Rawhide
TTITLE1=(Ghost) Riders In The Sky
TTITLE2=Sixteen Tons
TTITLE3=Mule Train
TTITLE4=Cry Of The Wild Goose
TTITLE5=Cool Water
TTITLE6=Don't Fence Me In
TTITLE7=Moonlight Gambler
TTITLE8=High Noon
TTITLE9=Hummingbird
TTITLE10=It Only Happens Once
TTITLE11=Strange Lady In Town
TTITLE12=Put Yourself In My Place, Baby
TTITLE13=Rose Rose I Love You
TTITLE14=Georgia On My Mind
TTITLE15=Baby, That Ain't Right
TTITLE16=Don't Blame Me
TTITLE17=A Woman In Love
TTITLE18=Moonlight In Vermont
TTITLE19=Wheel Of Fortune
EXTD=YEAR: 1996
EXTT0=
EXTT1=
EXTT2=
EXTT3=
EXTT4=
EXTT5=
EXTT6=
EXTT7=
EXTT8=
EXTT9=
EXTT10=
EXTT11=
EXTT12=
EXTT13=
EXTT14=
EXTT15=
EXTT16=
EXTT17=
EXTT18=
EXTT19=
PLAYORDER=
